<mxfile host="65bd71144e">
    <diagram id="GWLnqMdbR1QC0vf7nGiJ" name="Page-1">
        <mxGraphModel dx="498" dy="389" grid="1" gridSize="10" guides="1" tooltips="1" connect="1" arrows="1" fold="1" page="1" pageScale="1" pageWidth="1100" pageHeight="1700" math="0" shadow="0">
            <root>
                <mxCell id="0"/>
                <mxCell id="1" parent="0"/>
                <mxCell id="5" value="" style="edgeStyle=none;html=1;" parent="1" source="3" target="4" edge="1">
                    <mxGeometry relative="1" as="geometry"/>
                </mxCell>
                <mxCell id="3" value="Start" style="ellipse;whiteSpace=wrap;html=1;fillColor=#003300;" parent="1" vertex="1">
                    <mxGeometry x="190" y="30" width="120" height="80" as="geometry"/>
                </mxCell>
                <mxCell id="9" value="TRUE" style="edgeStyle=none;html=1;fontSize=16;" parent="1" source="4" target="8" edge="1">
                    <mxGeometry relative="1" as="geometry"/>
                </mxCell>
                <mxCell id="20" value="" style="edgeStyle=orthogonalEdgeStyle;html=1;fontSize=16;" parent="1" source="4" target="19" edge="1">
                    <mxGeometry relative="1" as="geometry"/>
                </mxCell>
                <mxCell id="4" value="Loop through each target" style="rhombus;whiteSpace=wrap;html=1;fillColor=#003300;" parent="1" vertex="1">
                    <mxGeometry x="180" y="150" width="140" height="80" as="geometry"/>
                </mxCell>
                <mxCell id="11" value="TRUE" style="edgeStyle=none;html=1;exitX=0.5;exitY=1;exitDx=0;exitDy=0;entryX=0.5;entryY=0;entryDx=0;entryDy=0;fontSize=16;" parent="1" source="8" target="10" edge="1">
                    <mxGeometry relative="1" as="geometry"/>
                </mxCell>
                <mxCell id="17" value="" style="edgeStyle=orthogonalEdgeStyle;html=1;exitX=0;exitY=0.5;exitDx=0;exitDy=0;entryX=0;entryY=0.5;entryDx=0;entryDy=0;fontSize=16;" parent="1" source="8" target="4" edge="1">
                    <mxGeometry relative="1" as="geometry">
                        <Array as="points">
                            <mxPoint x="100" y="350"/>
                            <mxPoint x="100" y="190"/>
                        </Array>
                    </mxGeometry>
                </mxCell>
                <mxCell id="29" value="FALSE" style="edgeLabel;html=1;align=center;verticalAlign=middle;resizable=0;points=[];fontSize=16;" parent="17" vertex="1" connectable="0">
                    <mxGeometry x="-0.4033" relative="1" as="geometry">
                        <mxPoint y="-54" as="offset"/>
                    </mxGeometry>
                </mxCell>
                <mxCell id="8" value="curTarget-&amp;gt;length &amp;lt;=0" style="rhombus;whiteSpace=wrap;html=1;fillColor=#003300;" parent="1" vertex="1">
                    <mxGeometry x="180" y="310" width="140" height="80" as="geometry"/>
                </mxCell>
                <mxCell id="10" value="exit" style="ellipse;whiteSpace=wrap;html=1;" parent="1" vertex="1">
                    <mxGeometry x="180" y="1200" width="120" height="80" as="geometry"/>
                </mxCell>
                <mxCell id="22" value="" style="edgeStyle=orthogonalEdgeStyle;html=1;fontSize=16;" parent="1" source="19" target="21" edge="1">
                    <mxGeometry relative="1" as="geometry"/>
                </mxCell>
                <mxCell id="19" value="TRUE" style="rhombus;whiteSpace=wrap;html=1;fontStyle=1;fillColor=#003300;" parent="1" vertex="1">
                    <mxGeometry x="590" y="150" width="140" height="80" as="geometry"/>
                </mxCell>
                <mxCell id="24" value="" style="edgeStyle=orthogonalEdgeStyle;html=1;fontSize=16;" parent="1" source="21" target="23" edge="1">
                    <mxGeometry relative="1" as="geometry"/>
                </mxCell>
                <mxCell id="21" value="Read a character" style="whiteSpace=wrap;html=1;fillColor=#003300;" parent="1" vertex="1">
                    <mxGeometry x="600" y="280" width="120" height="60" as="geometry"/>
                </mxCell>
                <mxCell id="25" style="edgeStyle=orthogonalEdgeStyle;html=1;exitX=0;exitY=0.5;exitDx=0;exitDy=0;entryX=1;entryY=0;entryDx=0;entryDy=0;fontSize=16;fontStyle=1" parent="1" source="23" target="10" edge="1">
                    <mxGeometry relative="1" as="geometry"/>
                </mxCell>
                <mxCell id="26" value="Timed Out" style="edgeLabel;html=1;align=center;verticalAlign=middle;resizable=0;points=[];fontSize=16;fontStyle=1" parent="25" vertex="1" connectable="0">
                    <mxGeometry x="-0.176" y="3" relative="1" as="geometry">
                        <mxPoint x="11" y="-3" as="offset"/>
                    </mxGeometry>
                </mxCell>
                <mxCell id="28" value="No Timeout" style="edgeStyle=orthogonalEdgeStyle;html=1;exitX=0.5;exitY=1;exitDx=0;exitDy=0;fontSize=16;" parent="1" source="23" target="27" edge="1">
                    <mxGeometry relative="1" as="geometry"/>
                </mxCell>
                <mxCell id="23" value="Check Timeout" style="rhombus;whiteSpace=wrap;html=1;fillColor=#003300;" parent="1" vertex="1">
                    <mxGeometry x="620" y="370" width="80" height="80" as="geometry"/>
                </mxCell>
                <mxCell id="31" value="Loop Through target" style="edgeStyle=orthogonalEdgeStyle;html=1;fontSize=16;" parent="1" source="27" target="30" edge="1">
                    <mxGeometry relative="1" as="geometry"/>
                </mxCell>
                <mxCell id="80" value="Finished Looping through targets" style="edgeStyle=orthogonalEdgeStyle;html=1;entryX=1;entryY=0.5;entryDx=0;entryDy=0;fontSize=16;exitX=1;exitY=0;exitDx=0;exitDy=0;fontStyle=0" parent="1" source="27" target="19" edge="1">
                    <mxGeometry x="0.1935" y="-50" relative="1" as="geometry">
                        <Array as="points">
                            <mxPoint x="850" y="550"/>
                            <mxPoint x="850" y="190"/>
                        </Array>
                        <mxPoint y="-1" as="offset"/>
                    </mxGeometry>
                </mxCell>
                <mxCell id="27" value="Loop through each target" style="rhombus;whiteSpace=wrap;html=1;fillColor=#003300;" parent="1" vertex="1">
                    <mxGeometry x="590" y="530" width="140" height="80" as="geometry"/>
                </mxCell>
                <mxCell id="37" value="TRUE" style="edgeStyle=orthogonalEdgeStyle;html=1;fontSize=16;" parent="1" source="30" target="36" edge="1">
                    <mxGeometry relative="1" as="geometry"/>
                </mxCell>
                <mxCell id="43" value="FALSE" style="edgeStyle=orthogonalEdgeStyle;html=1;fontSize=16;" parent="1" source="30" target="42" edge="1">
                    <mxGeometry x="0.0092" relative="1" as="geometry">
                        <mxPoint as="offset"/>
                    </mxGeometry>
                </mxCell>
                <mxCell id="30" value="byte==str[i]" style="rhombus;whiteSpace=wrap;html=1;fillColor=#003300;" parent="1" vertex="1">
                    <mxGeometry x="575" y="690" width="170" height="70" as="geometry"/>
                </mxCell>
                <mxCell id="39" value="" style="edgeStyle=orthogonalEdgeStyle;html=1;fontSize=16;" parent="1" source="36" target="38" edge="1">
                    <mxGeometry relative="1" as="geometry"/>
                </mxCell>
                <mxCell id="36" value="Increment Index" style="whiteSpace=wrap;html=1;fillColor=#003300;" parent="1" vertex="1">
                    <mxGeometry x="600" y="810" width="120" height="60" as="geometry"/>
                </mxCell>
                <mxCell id="40" value="Target is fully matched" style="edgeStyle=orthogonalEdgeStyle;html=1;exitX=0;exitY=0.5;exitDx=0;exitDy=0;entryX=1.017;entryY=0.424;entryDx=0;entryDy=0;entryPerimeter=0;fontSize=16;fillColor=#003300;fontStyle=1" parent="1" source="38" target="10" edge="1">
                    <mxGeometry x="-0.4331" relative="1" as="geometry">
                        <mxPoint as="offset"/>
                    </mxGeometry>
                </mxCell>
                <mxCell id="41" value="Target is partially Matched" style="edgeStyle=orthogonalEdgeStyle;html=1;exitX=0;exitY=0;exitDx=0;exitDy=0;entryX=0;entryY=0.5;entryDx=0;entryDy=0;fontSize=16;fontStyle=1" parent="1" source="38" target="27" edge="1">
                    <mxGeometry x="-0.0534" y="30" relative="1" as="geometry">
                        <Array as="points">
                            <mxPoint x="500" y="960"/>
                            <mxPoint x="500" y="570"/>
                        </Array>
                        <mxPoint as="offset"/>
                    </mxGeometry>
                </mxCell>
                <mxCell id="38" value="Is Index == Length" style="rhombus;whiteSpace=wrap;html=1;fillColor=#003300;" parent="1" vertex="1">
                    <mxGeometry x="595" y="940" width="130" height="80" as="geometry"/>
                </mxCell>
                <mxCell id="44" value="TRUE" style="edgeStyle=orthogonalEdgeStyle;html=1;exitX=1;exitY=0.5;exitDx=0;exitDy=0;entryX=1;entryY=0.5;entryDx=0;entryDy=0;fontSize=16;" parent="1" source="42" target="27" edge="1">
                    <mxGeometry x="-0.8194" y="-5" relative="1" as="geometry">
                        <Array as="points">
                            <mxPoint x="1260" y="725"/>
                            <mxPoint x="1260" y="570"/>
                        </Array>
                        <mxPoint as="offset"/>
                    </mxGeometry>
                </mxCell>
                <mxCell id="46" value="FALSE" style="edgeStyle=orthogonalEdgeStyle;html=1;fontSize=16;" parent="1" source="42" target="45" edge="1">
                    <mxGeometry relative="1" as="geometry"/>
                </mxCell>
                <mxCell id="42" value="Index is 0" style="rhombus;whiteSpace=wrap;html=1;fillColor=#003300;" parent="1" vertex="1">
                    <mxGeometry x="810" y="685" width="140" height="80" as="geometry"/>
                </mxCell>
                <mxCell id="48" value="" style="edgeStyle=orthogonalEdgeStyle;html=1;fontSize=16;" parent="1" source="45" target="47" edge="1">
                    <mxGeometry relative="1" as="geometry"/>
                </mxCell>
                <mxCell id="45" value="Save last index matched" style="whiteSpace=wrap;html=1;fillColor=#003300;" parent="1" vertex="1">
                    <mxGeometry x="820" y="810" width="120" height="60" as="geometry"/>
                </mxCell>
                <mxCell id="50" value="" style="edgeStyle=orthogonalEdgeStyle;html=1;fontSize=16;entryX=0.5;entryY=0;entryDx=0;entryDy=0;" parent="1" source="47" target="52" edge="1">
                    <mxGeometry relative="1" as="geometry">
                        <mxPoint x="880" y="1040" as="targetPoint"/>
                    </mxGeometry>
                </mxCell>
                <mxCell id="47" value="Decrement Index by 1" style="whiteSpace=wrap;html=1;fillColor=#003300;" parent="1" vertex="1">
                    <mxGeometry x="820" y="910" width="120" height="60" as="geometry"/>
                </mxCell>
                <mxCell id="56" value="False" style="edgeStyle=orthogonalEdgeStyle;html=1;fontSize=16;" parent="1" source="52" target="55" edge="1">
                    <mxGeometry relative="1" as="geometry">
                        <mxPoint as="offset"/>
                    </mxGeometry>
                </mxCell>
                <mxCell id="89" value="True" style="edgeStyle=orthogonalEdgeStyle;html=1;exitX=1;exitY=0.5;exitDx=0;exitDy=0;fontSize=16;fillColor=#003300;" parent="1" source="52" target="77" edge="1">
                    <mxGeometry relative="1" as="geometry"/>
                </mxCell>
                <mxCell id="113" value="" style="edgeStyle=orthogonalEdgeStyle;html=1;fontSize=10;fillColor=#003300;" parent="1" source="52" target="55" edge="1">
                    <mxGeometry relative="1" as="geometry"/>
                </mxCell>
                <mxCell id="52" value="byte!=str[i]" style="rhombus;whiteSpace=wrap;html=1;fillColor=#00331A;" parent="1" vertex="1">
                    <mxGeometry x="795" y="1010" width="170" height="70" as="geometry"/>
                </mxCell>
                <mxCell id="58" value="TRUE" style="edgeStyle=orthogonalEdgeStyle;html=1;fontSize=16;" parent="1" source="55" target="57" edge="1">
                    <mxGeometry relative="1" as="geometry"/>
                </mxCell>
                <mxCell id="127" value="FALSE" style="edgeStyle=orthogonalEdgeStyle;html=1;exitX=0.5;exitY=1;exitDx=0;exitDy=0;entryX=0.5;entryY=0;entryDx=0;entryDy=0;fontSize=10;fillColor=#003300;" parent="1" source="55" target="61" edge="1">
                    <mxGeometry relative="1" as="geometry"/>
                </mxCell>
                <mxCell id="55" value="index==0" style="rhombus;whiteSpace=wrap;html=1;fillColor=#003300;" parent="1" vertex="1">
                    <mxGeometry x="795" y="1160" width="170" height="70" as="geometry"/>
                </mxCell>
                <mxCell id="126" style="edgeStyle=orthogonalEdgeStyle;html=1;exitX=1;exitY=0.5;exitDx=0;exitDy=0;entryX=1;entryY=0.5;entryDx=0;entryDy=0;fontSize=10;fillColor=#003300;" parent="1" source="57" target="27" edge="1">
                    <mxGeometry relative="1" as="geometry">
                        <Array as="points">
                            <mxPoint x="1260" y="1195"/>
                            <mxPoint x="1260" y="570"/>
                        </Array>
                    </mxGeometry>
                </mxCell>
                <mxCell id="57" value="Increment index by 1" style="whiteSpace=wrap;html=1;fillColor=#003300;" parent="1" vertex="1">
                    <mxGeometry x="1055" y="1165" width="120" height="60" as="geometry"/>
                </mxCell>
                <mxCell id="64" value="" style="edgeStyle=orthogonalEdgeStyle;html=1;fontSize=16;" parent="1" source="61" target="63" edge="1">
                    <mxGeometry relative="1" as="geometry"/>
                </mxCell>
                <mxCell id="61" value="diff= savedIndex - index" style="whiteSpace=wrap;html=1;fillColor=#003300;" parent="1" vertex="1">
                    <mxGeometry x="815" y="1455" width="130" height="60" as="geometry"/>
                </mxCell>
                <mxCell id="66" value="TRUE" style="edgeStyle=orthogonalEdgeStyle;html=1;fontSize=16;" parent="1" source="63" target="65" edge="1">
                    <mxGeometry relative="1" as="geometry"/>
                </mxCell>
                <mxCell id="130" value="FALSE" style="edgeStyle=orthogonalEdgeStyle;html=1;exitX=0;exitY=0.5;exitDx=0;exitDy=0;" edge="1" parent="1" source="63" target="70">
                    <mxGeometry relative="1" as="geometry">
                        <Array as="points">
                            <mxPoint x="750" y="1625"/>
                            <mxPoint x="750" y="1910"/>
                            <mxPoint x="880" y="1910"/>
                        </Array>
                    </mxGeometry>
                </mxCell>
                <mxCell id="63" value="i &amp;lt; index" style="rhombus;whiteSpace=wrap;html=1;fillColor=#003300;" parent="1" vertex="1">
                    <mxGeometry x="840" y="1585" width="80" height="80" as="geometry"/>
                </mxCell>
                <mxCell id="67" value="FALSE" style="edgeStyle=orthogonalEdgeStyle;html=1;entryX=1;entryY=0.5;entryDx=0;entryDy=0;fontSize=16;exitX=1;exitY=0;exitDx=0;exitDy=0;" parent="1" source="65" target="63" edge="1">
                    <mxGeometry relative="1" as="geometry">
                        <Array as="points">
                            <mxPoint x="915" y="1715"/>
                            <mxPoint x="960" y="1715"/>
                            <mxPoint x="960" y="1625"/>
                        </Array>
                        <mxPoint x="810" y="1740" as="sourcePoint"/>
                    </mxGeometry>
                </mxCell>
                <mxCell id="69" value="TRUE" style="edgeStyle=orthogonalEdgeStyle;html=1;fontSize=16;fontStyle=0" parent="1" source="65" target="68" edge="1">
                    <mxGeometry relative="1" as="geometry"/>
                </mxCell>
                <mxCell id="65" value="str[i] != str[i+diff]" style="rhombus;whiteSpace=wrap;html=1;fillColor=#003300;" parent="1" vertex="1">
                    <mxGeometry x="810" y="1725" width="140" height="80" as="geometry"/>
                </mxCell>
                <mxCell id="71" value="TRUE" style="edgeStyle=orthogonalEdgeStyle;html=1;fontSize=16;" parent="1" source="68" target="70" edge="1">
                    <mxGeometry relative="1" as="geometry">
                        <Array as="points">
                            <mxPoint x="1050" y="1910"/>
                            <mxPoint x="880" y="1910"/>
                        </Array>
                    </mxGeometry>
                </mxCell>
                <mxCell id="78" value="" style="edgeStyle=orthogonalEdgeStyle;html=1;fontSize=16;" parent="1" source="68" target="77" edge="1">
                    <mxGeometry relative="1" as="geometry">
                        <mxPoint x="970" y="1900" as="targetPoint"/>
                    </mxGeometry>
                </mxCell>
                <mxCell id="68" value="i == index" style="rhombus;whiteSpace=wrap;html=1;" parent="1" vertex="1">
                    <mxGeometry x="1010" y="1720" width="80" height="80" as="geometry"/>
                </mxCell>
                <mxCell id="73" value="T" style="edgeStyle=orthogonalEdgeStyle;html=1;exitX=1;exitY=0.5;exitDx=0;exitDy=0;entryX=1;entryY=0.5;entryDx=0;entryDy=0;fontSize=16;" parent="1" source="70" target="27" edge="1">
                    <mxGeometry relative="1" as="geometry">
                        <Array as="points">
                            <mxPoint x="1260" y="2010"/>
                            <mxPoint x="1260" y="570"/>
                        </Array>
                    </mxGeometry>
                </mxCell>
                <mxCell id="70" value="Increment Index" style="whiteSpace=wrap;html=1;fillColor=#003300;" parent="1" vertex="1">
                    <mxGeometry x="820" y="1980" width="120" height="60" as="geometry"/>
                </mxCell>
                <mxCell id="88" value="False" style="edgeStyle=orthogonalEdgeStyle;html=1;exitX=1;exitY=0.5;exitDx=0;exitDy=0;entryX=1;entryY=0.5;entryDx=0;entryDy=0;fontSize=16;fillColor=#003300;" parent="1" source="77" target="27" edge="1">
                    <mxGeometry x="-0.9372" relative="1" as="geometry">
                        <Array as="points">
                            <mxPoint x="1260" y="1045"/>
                            <mxPoint x="1260" y="570"/>
                        </Array>
                        <mxPoint as="offset"/>
                    </mxGeometry>
                </mxCell>
                <mxCell id="90" value="True" style="edgeStyle=orthogonalEdgeStyle;html=1;exitX=0.5;exitY=0;exitDx=0;exitDy=0;entryX=1;entryY=0.5;entryDx=0;entryDy=0;fontSize=16;fillColor=#003300;" parent="1" source="77" target="47" edge="1">
                    <mxGeometry x="-0.7143" relative="1" as="geometry">
                        <mxPoint as="offset"/>
                    </mxGeometry>
                </mxCell>
                <mxCell id="77" value="index &amp;gt; 0" style="rhombus;whiteSpace=wrap;html=1;fillColor=#003300;" parent="1" vertex="1">
                    <mxGeometry x="1010" y="1005" width="80" height="80" as="geometry"/>
                </mxCell>
                <mxCell id="81" value="a a a A b" style="text;html=1;align=center;verticalAlign=middle;resizable=0;points=[];autosize=1;strokeColor=none;fillColor=none;fontSize=16;" parent="1" vertex="1">
                    <mxGeometry x="880" y="600" width="90" height="30" as="geometry"/>
                </mxCell>
                <mxCell id="110" value="&lt;font style=&quot;font-size: 10px;&quot;&gt;byte==match&lt;br&gt;&lt;br&gt;a==a True&amp;nbsp; &lt;span style=&quot;white-space: pre;&quot;&gt;&#9;&lt;/span&gt;i=0 -&amp;gt; 1&lt;br&gt;a==a True&lt;span style=&quot;white-space: pre;&quot;&gt;&#9;&lt;/span&gt;i=1 -&amp;gt; 2&lt;br&gt;a==a True&lt;span style=&quot;white-space: pre;&quot;&gt;&#9;&lt;/span&gt;i=2 -&amp;gt; 3&lt;br&gt;a==b False&amp;nbsp; &amp;nbsp;&lt;span style=&quot;white-space: pre;&quot;&gt;&#9;&lt;/span&gt;i=3&lt;br&gt;&lt;/font&gt;" style="shape=note2;boundedLbl=1;whiteSpace=wrap;html=1;size=25;verticalAlign=top;align=left;fontSize=6;fillColor=#000000;" parent="1" vertex="1">
                    <mxGeometry x="460" y="610" width="115" height="168" as="geometry"/>
                </mxCell>
                <mxCell id="111" value="&lt;font style=&quot;font-size: 10px;&quot;&gt;byte=b&amp;nbsp;&lt;span style=&quot;white-space: pre;&quot;&gt;&#9;&lt;/span&gt;i=3-1=2&lt;br&gt;&lt;br&gt;&lt;/font&gt;" style="shape=note2;boundedLbl=1;whiteSpace=wrap;html=1;size=25;verticalAlign=top;align=left;fontSize=6;fillColor=#000000;" parent="1" vertex="1">
                    <mxGeometry x="950" y="810" width="105" height="115" as="geometry"/>
                </mxCell>
                <mxCell id="112" value="&lt;font style=&quot;font-size: 10px;&quot;&gt;byte != match&lt;br&gt;&lt;br&gt;a != a False&lt;br&gt;&lt;br&gt;&lt;/font&gt;" style="shape=note2;boundedLbl=1;whiteSpace=wrap;html=1;size=25;verticalAlign=top;align=left;fontSize=6;fillColor=#000000;" parent="1" vertex="1">
                    <mxGeometry x="720" y="900" width="105" height="135" as="geometry"/>
                </mxCell>
                <mxCell id="114" value="&lt;font style=&quot;font-size: 10px;&quot;&gt;&lt;br&gt;&lt;/font&gt;" style="shape=note2;boundedLbl=1;whiteSpace=wrap;html=1;size=25;verticalAlign=top;align=left;fontSize=6;fillColor=#000000;" parent="1" vertex="1">
                    <mxGeometry x="1120" y="937.5" width="105" height="85" as="geometry"/>
                </mxCell>
                <mxCell id="116" value="&lt;font style=&quot;font-size: 10px;&quot;&gt;byte=a&lt;span style=&quot;white-space: pre;&quot;&gt;&#9;&lt;/span&gt;i=2&lt;br&gt;&lt;/font&gt;" style="shape=note2;boundedLbl=1;whiteSpace=wrap;html=1;size=25;verticalAlign=top;align=left;fontSize=6;fillColor=#000000;" parent="1" vertex="1">
                    <mxGeometry x="680" y="1160" width="105" height="85" as="geometry"/>
                </mxCell>
                <mxCell id="117" value="&lt;font style=&quot;font-size: 10px;&quot;&gt;i=0, index=2&lt;br&gt;str[0]!=str[1]&amp;nbsp; a==a False&lt;br&gt;&lt;br&gt;i=1, index=2&lt;br&gt;str[1]!=str[2]&amp;nbsp; a==a False&lt;br&gt;&lt;br&gt;i=2, index=2&lt;br&gt;&lt;/font&gt;" style="shape=note2;boundedLbl=1;whiteSpace=wrap;html=1;size=25;verticalAlign=top;align=left;fontSize=6;fillColor=#000000;" parent="1" vertex="1">
                    <mxGeometry x="1090" y="1590" width="148" height="150" as="geometry"/>
                </mxCell>
                <mxCell id="118" value="x4" style="text;html=1;align=center;verticalAlign=middle;resizable=0;points=[];autosize=1;strokeColor=none;fillColor=none;fontSize=10;fontStyle=1" parent="1" vertex="1">
                    <mxGeometry x="645" y="685" width="30" height="30" as="geometry"/>
                </mxCell>
                <mxCell id="119" value="x1" style="text;html=1;align=center;verticalAlign=middle;resizable=0;points=[];autosize=1;strokeColor=none;fillColor=none;fontSize=10;fontStyle=1" parent="1" vertex="1">
                    <mxGeometry x="815" y="710" width="30" height="30" as="geometry"/>
                </mxCell>
                <mxCell id="120" value="x0" style="text;html=1;align=center;verticalAlign=middle;resizable=0;points=[];autosize=1;strokeColor=none;fillColor=none;fontSize=10;fontStyle=1" parent="1" vertex="1">
                    <mxGeometry x="1050" y="1040" width="30" height="30" as="geometry"/>
                </mxCell>
                <mxCell id="123" value="x1" style="text;html=1;align=center;verticalAlign=middle;resizable=0;points=[];autosize=1;strokeColor=none;fillColor=none;fontSize=10;fontStyle=1" parent="1" vertex="1">
                    <mxGeometry x="865" y="1160" width="30" height="30" as="geometry"/>
                </mxCell>
                <mxCell id="128" value="&lt;font style=&quot;font-size: 10px;&quot;&gt;byte=a&lt;span style=&quot;white-space: pre;&quot;&gt;&#9;&lt;/span&gt;diff = 3 - 2 = 1&lt;br&gt;&lt;/font&gt;" style="shape=note2;boundedLbl=1;whiteSpace=wrap;html=1;size=25;verticalAlign=top;align=left;fontSize=6;fillColor=#000000;" vertex="1" parent="1">
                    <mxGeometry x="660" y="1490" width="140" height="85" as="geometry"/>
                </mxCell>
                <mxCell id="129" value="x2" style="text;html=1;align=center;verticalAlign=middle;resizable=0;points=[];autosize=1;strokeColor=none;fillColor=none;fontSize=10;fontStyle=1" vertex="1" parent="1">
                    <mxGeometry x="870" y="1720" width="30" height="30" as="geometry"/>
                </mxCell>
                <mxCell id="131" value="&lt;font style=&quot;font-size: 10px;&quot;&gt;2==2&lt;br&gt;&lt;/font&gt;" style="shape=note2;boundedLbl=1;whiteSpace=wrap;html=1;size=25;verticalAlign=top;align=left;fontSize=6;fillColor=#000000;" vertex="1" parent="1">
                    <mxGeometry x="1070" y="1810" width="148" height="80" as="geometry"/>
                </mxCell>
            </root>
        </mxGraphModel>
    </diagram>
</mxfile>